<svg xmlns="http://www.w3.org/2000/svg" xmlns:xlink="http://www.w3.org/1999/xlink" xmlns:svgjs="http://svgjs.com/svgjs" width="512" height="512" x="0" y="0" viewBox="0 0 500 500" style="enable-background:new 0 0 512 512" xml:space="preserve"><g><g xmlns="http://www.w3.org/2000/svg" id="XMLID_2671_"><g id="XMLID_262_"><g id="XMLID_1821_"><g id="XMLID_906_"><ellipse id="XMLID_780_" cx="178.58" cy="75.019" rx="6.986" ry="6.999" fill="#ffffff" data-original="#000000"></ellipse></g><g id="XMLID_10_"><ellipse id="XMLID_777_" cx="332.398" cy="280.01" rx="6.986" ry="6.999" fill="#ffffff" data-original="#000000"></ellipse></g><path id="XMLID_902_" d="m153.63 69.019h-29.432c-2.767-13.12-14.415-22.999-28.327-22.999-15.966 0-28.954 13.009-28.954 28.999s12.989 28.999 28.954 28.999c13.911 0 25.56-9.879 28.327-22.999h29.432c3.313 0 6-2.686 6-6s-2.687-6-6-6zm-57.759 22.999c-9.349 0-16.955-7.626-16.955-16.999s7.606-16.999 16.955-16.999 16.954 7.626 16.954 16.999-7.606 16.999-16.954 16.999z" fill="#ffffff" data-original="#000000"></path></g><path id="XMLID_855_" d="m137.662 339.007h-23.444c-2.767-13.12-14.415-22.999-28.327-22.999-15.965 0-28.954 13.009-28.954 28.999s12.989 28.999 28.954 28.999c13.912 0 25.56-9.879 28.327-22.999h23.444c3.313 0 6-2.686 6-6-.001-3.313-2.687-6-6-6zm-51.772 22.999c-9.349 0-16.954-7.626-16.954-16.999 0-9.374 7.606-16.999 16.954-16.999s16.955 7.626 16.955 16.999-7.606 16.999-16.955 16.999z" fill="#ffffff" data-original="#000000"></path><path id="XMLID_914_" d="m451.036 251.011c-13.911 0-25.56 9.879-28.327 22.999h-65.361c-3.313 0-6 2.686-6 6 0 3.313 2.686 6 6 6h65.361c2.767 13.12 14.415 22.999 28.327 22.999 15.965 0 28.954-13.009 28.954-28.999s-12.989-28.999-28.954-28.999zm0 45.998c-9.348 0-16.954-7.626-16.954-16.999 0-9.374 7.606-16.999 16.954-16.999s16.954 7.626 16.954 16.999-7.606 16.999-16.954 16.999z" fill="#ffffff" data-original="#000000"></path></g><g id="XMLID_2665_"><g id="XMLID_2669_"><g id="XMLID_2678_"><g id="XMLID_2677_"><ellipse id="XMLID_775_" cx="230.384" cy="78.256" rx="4.657" ry="6" fill="#ffffff" data-original="#000000"></ellipse></g><g id="XMLID_2676_"><ellipse id="XMLID_511_" cx="266.608" cy="78.256" rx="4.657" ry="6" fill="#ffffff" data-original="#000000"></ellipse></g></g><path id="XMLID_919_" d="m391.156 389.005c-12.252 0-22.542 8.547-25.254 19.999h-53.814l-4.198-110.48-.091-80.428 34.906 34.974c7.018 7.031 16.349 10.903 26.273 10.903 9.925 0 19.256-3.872 26.274-10.903 2.251-2.255 2.346-5.877.217-8.247l-84.451-94.047c-7.035-7.834-17.103-12.327-27.622-12.327h-11.046v-19.004c5.43-3.456 10.07-8.045 13.599-13.427h59.993c2.713 11.452 13.003 19.999 25.254 19.999 14.314 0 25.96-11.663 25.96-25.999s-11.646-25.999-25.96-25.999c-12.252 0-22.542 8.547-25.254 19.999h-54.459c1.182-4.028 1.837-8.28 1.837-12.687l-.058-38.069c0-18.803-12.074-35.138-30.045-40.649-19.251-5.904-39.934-1.667-55.326 11.332l-17.074 14.418c-5.274 4.453-5.254 12.845.04 17.275 4.049 3.387 7.551 6.428 12.345 8.751v26.942c0 15.947 8.307 29.978 20.806 38.009v19.109h-10.348c-10.508 0-20.564 4.484-27.59 12.302l-25.398 28.263h-89.448c-2.713-11.452-13.002-19.999-25.254-19.999-14.314 0-25.96 11.663-25.96 25.999s11.645 25.999 25.96 25.999c12.252 0 22.542-8.547 25.254-19.999h78.665l-48.352 53.808c-2.13 2.37-2.035 5.992.216 8.248 7.017 7.031 16.348 10.903 26.274 10.903s19.256-3.872 26.273-10.903l34.344-34.411-.029 13.794c-.007 3.314 2.674 6.006 5.987 6.012h.013c3.307 0 5.993-2.678 6-5.987l.06-28.342c.01-5.167-6.549-7.954-10.246-4.251l-44.621 44.708c-8.16 8.176-21.318 9.725-31.123 3.551l80.311-89.373c4.753-5.289 11.556-8.323 18.664-8.323h16.347c3.313 0 6-2.686 6-6v-19.687c7.909 2.237 16.426 2.252 24.343.044v19.642c0 3.313 2.686 6 6 6h17.046c7.118 0 13.932 3.042 18.694 8.345l80.233 89.35c-9.805 6.176-22.965 4.626-31.125-3.549l-45.169-45.256c-3.647-3.657-10.253-.984-10.247 4.245l.107 95.067c0 .074.002.147.004.221l6.515 171.471c.097 2.545 1.791 4.753 4.225 5.505 5.887 1.819 10.417 6.467 12.282 12.155h-35.766s.072-19.193-.013-19.81l-21.432-155.088c-2.113-15.283-24.94-15.319-27.056 0l-21.432 155.088c-.082.592-.013 19.81-.013 19.81h-35.763c1.865-5.688 6.394-10.336 12.282-12.155 2.434-.752 4.128-2.959 4.224-5.505l6.525-171.706c.003-.072.004-.144.004-.215l.039-18.398c.007-3.314-2.674-6.006-5.987-6.012h-.013c-3.308 0-5.993 2.678-6 5.987l-.039 18.29-6.372 167.685c-10.634 5.069-17.69 16.06-17.592 28.077.027 3.294 2.705 5.951 6 5.951h48.679c3.308 0 5.992-2.678 6-5.985l.06-24.988c0-.073-.001-.146-.004-.218l21.29-154.063c.253-1.83 3.022-1.89 3.284 0l21.29 154.062c-.003.073-.004.146-.004.219l.06 24.988c.008 3.308 2.691 5.986 6 5.986h48.679c3.295 0 5.972-2.657 6-5.951.097-12.017-6.959-23.007-17.593-28.076l-1.709-44.969h53.358c2.713 11.452 13.003 19.999 25.254 19.999 14.314 0 25.96-11.663 25.96-25.999s-11.645-26-25.959-26zm-19.96-302.987c7.698 0 13.96 6.28 13.96 13.999s-6.262 13.999-13.96 13.999-13.96-6.28-13.96-13.999 6.262-13.999 13.96-13.999zm-325.226 112.995c-7.698 0-13.96-6.28-13.96-13.999s6.262-13.999 13.96-13.999 13.96 6.28 13.96 13.999-6.262 13.999-13.96 13.999zm153.24-162.032 16.423-13.869c12.262-10.355 28.735-13.73 44.067-9.027 12.897 3.955 21.563 15.68 21.563 29.177v3.379c-5.969-3.563-13.366-4.235-19.942-1.496-18.195 7.574-39.237 6.302-56.398-3.386zm49.05 77.485c-18.229 0-33.059-14.865-33.059-33.135v-22.314c12.512 3.626 25.981 3.982 38.673 1.063 5.352-1.231 11.976-5.28 17.398-4.452 4.625.707 7.136 4.272 10.048 7.504v18.198c0 18.271-14.83 33.136-33.06 33.136zm142.896 314.537c-7.698 0-13.96-6.28-13.96-13.999s6.262-13.999 13.96-13.999 13.96 6.28 13.96 13.999-6.262 13.999-13.96 13.999z" fill="#ffffff" data-original="#000000"></path></g><g id="XMLID_2666_"><g id="XMLID_2668_"><path id="XMLID_1612_" d="m248.502 212.185c-8.596 0-17.189-2.113-25.007-6.337-2.915-1.575-4.002-5.215-2.427-8.131 1.574-2.915 5.214-4.002 8.13-2.427 11.955 6.458 26.264 6.525 38.278.174l.385-.203c2.932-1.546 6.56-.421 8.105 2.511 1.545 2.931.422 6.56-2.51 8.105l-.379.2c-7.704 4.073-16.141 6.108-24.575 6.108z" fill="#ffffff" data-original="#000000"></path></g></g><g id="XMLID_783_"><path id="XMLID_851_" d="m248.502 247.184c-8.596 0-17.189-2.113-25.007-6.337-2.915-1.575-4.002-5.215-2.427-8.13 1.574-2.915 5.214-4.002 8.13-2.427 11.955 6.458 26.264 6.525 38.278.174 7.282-4.014 12.941 6.958 5.601 10.612-7.704 4.072-16.141 6.108-24.575 6.108z" fill="#ffffff" data-original="#000000"></path></g></g><g id="XMLID_181_"><ellipse id="XMLID_273_" cx="163.61" cy="345.007" rx="6.986" ry="6.999" fill="#ffffff" data-original="#000000"></ellipse></g><g id="XMLID_251_"><ellipse id="XMLID_19_" cx="194.822" cy="255.887" rx="6.986" ry="6.999" fill="#ffffff" data-original="#000000"></ellipse></g></g></g></svg>