<svg xmlns="http://www.w3.org/2000/svg" xmlns:xlink="http://www.w3.org/1999/xlink" xmlns:svgjs="http://svgjs.com/svgjs" width="512" height="512" x="0" y="0" viewBox="0 0 512 512" style="enable-background:new 0 0 512 512" xml:space="preserve"><g><path xmlns="http://www.w3.org/2000/svg" d="m204.203 289.33h-89.87c-4.143 0-7.5 3.358-7.5 7.5s3.357 7.5 7.5 7.5h89.87c4.143 0 7.5-3.358 7.5-7.5s-3.357-7.5-7.5-7.5zm-80.379-23.02h70.888c4.143 0 7.5-3.358 7.5-7.5s-3.357-7.5-7.5-7.5h-70.888c-4.143 0-7.5 3.358-7.5 7.5s3.358 7.5 7.5 7.5zm325.844-32.088c0-5.133-1.999-9.959-5.628-13.588l-59.888-59.888c-3.63-3.629-8.455-5.628-13.588-5.628-5.134 0-9.959 1.999-13.589 5.628l-19.005 19.005-8.108-8.108c-7.493-7.492-19.683-7.492-27.176-.001 0 0 0 .001-.001.001l-13.966 13.966c-7.491 7.493-7.491 19.683 0 27.176l27.638 27.638-66.197 66.197c-1.535-2.863-3.326-5.586-5.372-8.089-6.787-8.298-10.524-18.772-10.524-29.494v-20.454c0-10.721 3.737-21.196 10.524-29.494 7.361-9.001 11.415-20.362 11.415-31.99v-44.652c0-21.311-17.04-38.704-38.21-39.299v-22.553c0-15.391-12.521-27.912-27.912-27.912h-3.439v-11.858h.653c4.453 0 8.532-2.049 11.19-5.622 2.659-3.573 3.45-8.069 2.17-12.335l-1.892-6.307c-2.971-9.906-11.916-16.561-22.258-16.561h-34.474c-10.343 0-19.288 6.656-22.26 16.562l-1.892 6.304c-1.28 4.266-.49 8.762 2.168 12.336s6.738 5.623 11.192 5.623h.653v11.857h-3.439c-3.756 0-7.403.735-10.841 2.186-3.816 1.61-5.605 6.009-3.995 9.825 1.609 3.817 6.008 5.604 9.825 3.995 1.582-.668 3.269-1.006 5.011-1.006h61.628c7.12 0 12.912 5.793 12.912 12.912v22.524h-87.452v-14.717c0-4.142-3.357-7.5-7.5-7.5s-7.5 3.358-7.5 7.5v14.747c-21.169.595-38.21 17.988-38.21 39.299v44.652c0 11.628 4.054 22.989 11.415 31.99 6.787 8.299 10.525 18.774 10.525 29.494v20.453c0 10.721-3.738 21.195-10.525 29.494-7.361 9.001-11.415 20.362-11.415 31.99v33.648c0 24.793 18.024 45.442 41.654 49.568l-5.571 5.571c-3.63 3.629-5.629 8.455-5.629 13.588s1.999 9.958 5.628 13.587l59.888 59.888c3.63 3.629 8.455 5.628 13.588 5.628 5.134 0 9.959-1.999 13.589-5.628l19.005-19.005 8.108 8.108c3.747 3.747 8.666 5.619 13.588 5.619 4.92 0 9.842-1.873 13.589-5.619l13.966-13.966c.584-.584 1.133-1.208 1.631-1.853 2.529-3.28 1.921-7.99-1.359-10.519-3.279-2.53-7.989-1.923-10.52 1.359-.106.139-.227.276-.359.407l-13.965 13.966c-1.643 1.644-4.319 1.645-5.963.001l-103.281-103.281c-1.645-1.644-1.645-4.319 0-5.963l13.965-13.965c.797-.797 1.857-1.235 2.982-1.235 1.126 0 2.185.439 2.98 1.235l70.336 70.336c.001.001.002.003.003.004s.003.002.004.004l21.743 21.743c2.93 2.929 7.678 2.929 10.607 0s2.929-7.678 0-10.606l-16.444-16.444 138.267-138.267 27.638 27.637c3.63 3.629 8.455 5.628 13.588 5.628 5.134 0 9.959-1.999 13.589-5.628l13.966-13.966c7.492-7.493 7.491-19.684 0-27.176l-8.109-8.109 19.004-19.004c3.632-3.63 5.631-8.456 5.631-13.589zm-278.025-181.539h-24.749v-11.858h24.749zm-38.99-26.858 1.485-4.954c1.054-3.512 4.226-5.872 7.893-5.872h34.474c3.667 0 6.839 2.36 7.893 5.872l1.485 4.954zm-55.321 116.622c0-13.415 10.913-24.328 24.327-24.328h115.218c13.414 0 24.327 10.913 24.327 24.328v13.49c-19.917 1.514-31.884 4.586-42.565 7.329-11.494 2.952-21.421 5.502-39.37 5.502-17.95 0-27.876-2.55-39.37-5.502-10.682-2.743-22.649-5.815-42.566-7.329v-13.49zm50.694 268.463 65.85 65.85-19.005 19.005c-.796.796-1.854 1.235-2.981 1.235-1.126 0-2.185-.439-2.98-1.235l-59.889-59.889c-.796-.796-1.234-1.855-1.234-2.98 0-1.126.438-2.185 1.235-2.981zm22.427-59.858c-3.63-3.629-8.455-5.628-13.588-5.628s-9.958 1.999-13.589 5.628l-13.966 13.966c-7.492 7.493-7.491 19.684 0 27.176l7.307 7.307h-3.954c-19.482 0-35.332-15.85-35.332-35.332v-33.648c0-8.176 2.851-16.165 8.026-22.494 8.973-10.971 13.914-24.818 13.914-38.99v-20.453c0-14.172-4.941-28.019-13.914-38.99-5.176-6.329-8.026-14.318-8.026-22.494v-16.12c17.868 1.431 28.507 4.162 38.835 6.815 11.959 3.072 23.256 5.974 43.102 5.974 19.845 0 31.142-2.901 43.102-5.974 10.328-2.653 20.966-5.384 38.834-6.815v16.12c0 8.176-2.851 16.165-8.026 22.495-8.972 10.97-13.913 24.817-13.913 38.99v20.454c0 14.173 4.941 28.02 13.913 38.99 2.406 2.942 4.336 6.305 5.696 9.879l-60.783 60.783zm65.037 65.036-26.792-26.792 138.267-138.266 26.792 26.792zm207.046-124.595-13.966 13.966c-.796.796-1.855 1.235-2.981 1.235s-2.185-.438-2.98-1.235l-70.337-70.336c-.001-.001-.002-.002-.003-.003s-.002-.002-.003-.003l-32.938-32.938c-1.645-1.644-1.645-4.319 0-5.963l13.965-13.966c1.643-1.644 4.319-1.645 5.963-.001l103.28 103.281c1.645 1.644 1.645 4.319 0 5.963zm10.897-54.289-19.005 19.004-65.85-65.85 19.005-19.005c.796-.796 1.854-1.235 2.982-1.235 1.126 0 2.184.439 2.98 1.235l59.889 59.889c.796.796 1.234 1.855 1.234 2.981 0 1.125-.439 2.184-1.235 2.981z" fill="#ffffff" data-original="#000000"></path></g></svg>